<?xml version="1.0" standalone="no"?>
<!DOCTYPE svg PUBLIC "-//W3C//DTD SVG 20010904//EN"
 "http://www.w3.org/TR/2001/REC-SVG-20010904/DTD/svg10.dtd">
<svg version="1.0" xmlns="http://www.w3.org/2000/svg"
 width="40.000000pt" height="40.000000pt" viewBox="0 0 40.000000 40.000000"
 preserveAspectRatio="xMidYMid meet">
<metadata>
Created by potrace 1.10, written by Peter Selinger 2001-2011
</metadata>
<g transform="translate(0.000000,40.000000) scale(0.100000,-0.100000)"
fill="#000000" stroke="none">
<path d="M180 340 c-11 -7 -3 -10 30 -11 26 -1 34 -4 20 -6 -47 -8 -56 -13
-40 -23 8 -5 21 -5 31 1 10 5 29 9 43 9 38 0 31 18 -11 29 -46 13 -54 13 -73
1z"/>
<path d="M342 314 c-6 -11 -27 -33 -46 -48 -32 -24 -39 -25 -77 -17 -27 6 -38
6 -31 -1 5 -5 26 -13 45 -18 31 -7 39 -4 63 21 15 16 33 29 38 29 6 0 3 -5 -7
-11 -15 -9 -47 -59 -47 -74 0 -15 18 -1 28 23 13 29 12 28 -5 -47 -4 -15 -2
-22 4 -18 6 4 14 23 18 43 3 20 8 34 11 31 10 -9 -15 -91 -30 -99 -9 -5 -16
-16 -16 -23 0 -8 -4 -15 -9 -15 -6 0 -12 24 -14 53 l-3 52 -2 -60 c-1 -33 -6
-65 -10 -72 -11 -18 -79 5 -85 28 -5 19 -37 27 -37 10 0 -23 117 -80 130 -64
82 103 83 104 85 161 1 32 5 69 9 84 11 37 3 59 -12 32z"/>
<path d="M54 194 c4 -54 8 -99 9 -100 1 -1 16 -5 32 -9 l30 -7 -22 19 c-17 14
-23 33 -29 91 l-7 72 39 0 c44 1 32 13 -25 25 l-34 7 7 -98z"/>
<path d="M150 280 c0 -5 9 -10 20 -10 11 0 20 5 20 10 0 6 -9 10 -20 10 -11 0
-20 -4 -20 -10z"/>
<path d="M95 230 c-3 -5 -3 -14 0 -20 8 -14 32 -13 37 2 6 16 38 2 38 -16 0
-7 -9 -16 -20 -19 -26 -7 -26 -43 0 -50 13 -3 20 0 20 9 0 7 9 18 20 24 26 14
25 32 -3 58 -24 23 -81 30 -92 12z"/>
</g>
</svg>
